{
    "asset" : {
        "generator" : "Khronos glTF Blender I/O v1.8.19",
        "version" : "2.0"
    },
    "scene" : 0,
    "scenes" : [
        {
            "name" : "Scene",
            "nodes" : [
                0
            ]
        }
    ],
    "nodes" : [
        {
            "mesh" : 0,
            "name" : "Cylinder"
        }
    ],
    "materials" : [
        {
            "doubleSided" : true,
            "name" : "Mug",
            "pbrMetallicRoughness" : {
                "baseColorFactor" : [
                    0.800000011920929,
                    0.800000011920929,
                    0.800000011920929,
                    1
                ],
                "metallicFactor" : 0,
                "roughnessFactor" : 0.18478262424468994
            }
        },
        {
            "alphaMode" : "BLEND",
            "doubleSided" : true,
            "name" : "Logo",
            "pbrMetallicRoughness" : {
                "baseColorTexture" : {
                    "index" : 0
                },
                "metallicFactor" : 0,
                "roughnessFactor" : 0.5
            }
        }
    ],
    "meshes" : [
        {
            "name" : "Cylinder",
            "primitives" : [
                {
                    "attributes" : {
                        "POSITION" : 0,
                        "NORMAL" : 1,
                        "TEXCOORD_0" : 2
                    },
                    "indices" : 3,
                    "material" : 0
                },
                {
                    "attributes" : {
                        "POSITION" : 4,
                        "NORMAL" : 5,
                        "TEXCOORD_0" : 6
                    },
                    "indices" : 7,
                    "material" : 1
                }
            ]
        }
    ],
    "textures" : [
        {
            "sampler" : 0,
            "source" : 0
        }
    ],
    "images" : [
        {
            "bufferView" : 8,
            "mimeType" : "image/png",
            "name" : "asm-logo-blue"
        }
    ],
    "accessors" : [
        {
            "bufferView" : 0,
            "componentType" : 5126,
            "count" : 991,
            "max" : [
                0.028496846556663513,
                0.06700389832258224,
                0.03353596851229668
            ],
            "min" : [
                -0.028496839106082916,
                -0.06883952021598816,
                -0.023457709699869156
            ],
            "type" : "VEC3"
        },
        {
            "bufferView" : 1,
            "componentType" : 5126,
            "count" : 991,
            "type" : "VEC3"
        },
        {
            "bufferView" : 2,
            "componentType" : 5126,
            "count" : 991,
            "type" : "VEC2"
        },
        {
            "bufferView" : 3,
            "componentType" : 5123,
            "count" : 5568,
            "type" : "SCALAR"
        },
        {
            "bufferView" : 4,
            "componentType" : 5126,
            "count" : 55,
            "max" : [
                0.02369426004588604,
                0.026294128969311714,
                0.033616989850997925
            ],
            "min" : [
                -0.023694248870015144,
                -0.02798556722700596,
                0.020952139049768448
            ],
            "type" : "VEC3"
        },
        {
            "bufferView" : 5,
            "componentType" : 5126,
            "count" : 55,
            "type" : "VEC3"
        },
        {
            "bufferView" : 6,
            "componentType" : 5126,
            "count" : 55,
            "type" : "VEC2"
        },
        {
            "bufferView" : 7,
            "componentType" : 5123,
            "count" : 240,
            "type" : "SCALAR"
        }
    ],
    "bufferViews" : [
        {
            "buffer" : 0,
            "byteLength" : 11892,
            "byteOffset" : 0
        },
        {
            "buffer" : 0,
            "byteLength" : 11892,
            "byteOffset" : 11892
        },
        {
            "buffer" : 0,
            "byteLength" : 7928,
            "byteOffset" : 23784
        },
        {
            "buffer" : 0,
            "byteLength" : 11136,
            "byteOffset" : 31712
        },
        {
            "buffer" : 0,
            "byteLength" : 660,
            "byteOffset" : 42848
        },
        {
            "buffer" : 0,
            "byteLength" : 660,
            "byteOffset" : 43508
        },
        {
            "buffer" : 0,
            "byteLength" : 440,
            "byteOffset" : 44168
        },
        {
            "buffer" : 0,
            "byteLength" : 480,
            "byteOffset" : 44608
        },
        {
            "buffer" : 0,
            "byteLength" : 14625,
            "byteOffset" : 45088
        }
    ],
    "samplers" : [
        {
            "magFilter" : 9729,
            "minFilter" : 9987,
            "wrapS" : 33071,
            "wrapT" : 33071
        }
    ],
    "buffers" : [
        {
            "byteLength" : 59716,
            "uri" : "data:application/octet-stream;base64,"
        }
    ]
}
