{
    "asset" : {
        "generator" : "Khronos glTF Blender I/O v1.8.19",
        "version" : "2.0"
    },
    "scene" : 0,
    "scenes" : [
        {
            "name" : "Scene",
            "nodes" : [
                0
            ]
        }
    ],
    "nodes" : [
        {
            "mesh" : 0,
            "name" : "Cylinder"
        }
    ],
    "materials" : [
        {
            "doubleSided" : true,
            "name" : "Mug",
            "pbrMetallicRoughness" : {
                "baseColorFactor" : [
                    0.800000011920929,
                    0.800000011920929,
                    0.800000011920929,
                    1
                ],
                "metallicFactor" : 0,
                "roughnessFactor" : 0.04347825050354004
            }
        },
        {
            "alphaMode" : "BLEND",
            "doubleSided" : true,
            "name" : "Logo",
            "pbrMetallicRoughness" : {
                "baseColorTexture" : {
                    "index" : 0
                },
                "metallicFactor" : 0,
                "roughnessFactor" : 0.5
            }
        }
    ],
    "meshes" : [
        {
            "name" : "Cylinder.003",
            "primitives" : [
                {
                    "attributes" : {
                        "POSITION" : 0,
                        "NORMAL" : 1,
                        "TEXCOORD_0" : 2
                    },
                    "indices" : 3,
                    "material" : 0
                },
                {
                    "attributes" : {
                        "POSITION" : 4,
                        "NORMAL" : 5,
                        "TEXCOORD_0" : 6
                    },
                    "indices" : 7,
                    "material" : 1
                }
            ]
        }
    ],
    "textures" : [
        {
            "sampler" : 0,
            "source" : 0
        }
    ],
    "images" : [
        {
            "bufferView" : 8,
            "mimeType" : "image/png",
            "name" : "asm-logo-blue"
        }
    ],
    "accessors" : [
        {
            "bufferView" : 0,
            "componentType" : 5126,
            "count" : 4013,
            "max" : [
                0.07000298798084259,
                0.04716414585709572,
                0.03989559784531593
            ],
            "min" : [
                -0.039894890040159225,
                -0.04889828339219093,
                -0.039895590394735336
            ],
            "type" : "VEC3"
        },
        {
            "bufferView" : 1,
            "componentType" : 5126,
            "count" : 4013,
            "type" : "VEC3"
        },
        {
            "bufferView" : 2,
            "componentType" : 5126,
            "count" : 4013,
            "type" : "VEC2"
        },
        {
            "bufferView" : 3,
            "componentType" : 5123,
            "count" : 20256,
            "type" : "SCALAR"
        },
        {
            "bufferView" : 4,
            "componentType" : 5126,
            "count" : 195,
            "max" : [
                0.03056376241147518,
                0.029228894039988518,
                0.03991100564599037
            ],
            "min" : [
                -0.030563760548830032,
                -0.027518894523382187,
                0.026499059051275253
            ],
            "type" : "VEC3"
        },
        {
            "bufferView" : 5,
            "componentType" : 5126,
            "count" : 195,
            "type" : "VEC3"
        },
        {
            "bufferView" : 6,
            "componentType" : 5126,
            "count" : 195,
            "type" : "VEC2"
        },
        {
            "bufferView" : 7,
            "componentType" : 5123,
            "count" : 864,
            "type" : "SCALAR"
        }
    ],
    "bufferViews" : [
        {
            "buffer" : 0,
            "byteLength" : 48156,
            "byteOffset" : 0
        },
        {
            "buffer" : 0,
            "byteLength" : 48156,
            "byteOffset" : 48156
        },
        {
            "buffer" : 0,
            "byteLength" : 32104,
            "byteOffset" : 96312
        },
        {
            "buffer" : 0,
            "byteLength" : 40512,
            "byteOffset" : 128416
        },
        {
            "buffer" : 0,
            "byteLength" : 2340,
            "byteOffset" : 168928
        },
        {
            "buffer" : 0,
            "byteLength" : 2340,
            "byteOffset" : 171268
        },
        {
            "buffer" : 0,
            "byteLength" : 1560,
            "byteOffset" : 173608
        },
        {
            "buffer" : 0,
            "byteLength" : 1728,
            "byteOffset" : 175168
        },
        {
            "buffer" : 0,
            "byteLength" : 14625,
            "byteOffset" : 176896
        }
    ],
    "samplers" : [
        {
            "magFilter" : 9729,
            "minFilter" : 9987,
            "wrapS" : 33071,
            "wrapT" : 33071
        }
    ],
    "buffers" : [
        {
            "byteLength" : 191524,
            "uri" : "data:application/octet-stream;base64,"
        }
    ]
}
