{
    "asset" : {
        "generator" : "Khronos glTF Blender I/O v1.8.19",
        "version" : "2.0"
    },
    "scene" : 0,
    "scenes" : [
        {
            "name" : "Scene",
            "nodes" : [
                0
            ]
        }
    ],
    "nodes" : [
        {
            "mesh" : 0,
            "name" : "Mug",
            "translation" : [
                0.0029749698005616665,
                -0.009767178446054459,
                0.0029438957571983337
            ]
        }
    ],
    "materials" : [
        {
            "doubleSided" : true,
            "name" : "Mug",
            "pbrMetallicRoughness" : {
                "baseColorFactor" : [
                    0.800000011920929,
                    0.800000011920929,
                    0.800000011920929,
                    1
                ],
                "metallicFactor" : 0,
                "roughnessFactor" : 0.15789483487606049
            }
        },
        {
            "alphaMode" : "BLEND",
            "doubleSided" : true,
            "name" : "Logo",
            "pbrMetallicRoughness" : {
                "baseColorTexture" : {
                    "index" : 0
                },
                "metallicFactor" : 0,
                "roughnessFactor" : 0.5
            }
        }
    ],
    "meshes" : [
        {
            "name" : "Cylinder.002",
            "primitives" : [
                {
                    "attributes" : {
                        "POSITION" : 0,
                        "NORMAL" : 1,
                        "TEXCOORD_0" : 2
                    },
                    "indices" : 3,
                    "material" : 0
                },
                {
                    "attributes" : {
                        "POSITION" : 4,
                        "NORMAL" : 5,
                        "TEXCOORD_0" : 6
                    },
                    "indices" : 7,
                    "material" : 1
                }
            ]
        }
    ],
    "textures" : [
        {
            "sampler" : 0,
            "source" : 0
        }
    ],
    "images" : [
        {
            "bufferView" : 8,
            "mimeType" : "image/png",
            "name" : "Image_0"
        }
    ],
    "accessors" : [
        {
            "bufferView" : 0,
            "componentType" : 5126,
            "count" : 4115,
            "max" : [
                0.07327929139137268,
                0.05000000074505806,
                0.041999999433755875
            ],
            "min" : [
                -0.04157250002026558,
                -0.05000000074505806,
                -0.041999999433755875
            ],
            "type" : "VEC3"
        },
        {
            "bufferView" : 1,
            "componentType" : 5126,
            "count" : 4115,
            "type" : "VEC3"
        },
        {
            "bufferView" : 2,
            "componentType" : 5126,
            "count" : 4115,
            "type" : "VEC2"
        },
        {
            "bufferView" : 3,
            "componentType" : 5123,
            "count" : 5196,
            "type" : "SCALAR"
        },
        {
            "bufferView" : 4,
            "componentType" : 5126,
            "count" : 81,
            "max" : [
                0.03820454329252243,
                0.04016999900341034,
                0.041999999433755875
            ],
            "min" : [
                -0.03820454329252243,
                -0.03847000002861023,
                0.01744743064045906
            ],
            "type" : "VEC3"
        },
        {
            "bufferView" : 5,
            "componentType" : 5126,
            "count" : 81,
            "type" : "VEC3"
        },
        {
            "bufferView" : 6,
            "componentType" : 5126,
            "count" : 81,
            "type" : "VEC2"
        },
        {
            "bufferView" : 7,
            "componentType" : 5123,
            "count" : 384,
            "type" : "SCALAR"
        }
    ],
    "bufferViews" : [
        {
            "buffer" : 0,
            "byteLength" : 49380,
            "byteOffset" : 0
        },
        {
            "buffer" : 0,
            "byteLength" : 49380,
            "byteOffset" : 49380
        },
        {
            "buffer" : 0,
            "byteLength" : 32920,
            "byteOffset" : 98760
        },
        {
            "buffer" : 0,
            "byteLength" : 10392,
            "byteOffset" : 131680
        },
        {
            "buffer" : 0,
            "byteLength" : 972,
            "byteOffset" : 142072
        },
        {
            "buffer" : 0,
            "byteLength" : 972,
            "byteOffset" : 143044
        },
        {
            "buffer" : 0,
            "byteLength" : 648,
            "byteOffset" : 144016
        },
        {
            "buffer" : 0,
            "byteLength" : 768,
            "byteOffset" : 144664
        },
        {
            "buffer" : 0,
            "byteLength" : 14625,
            "byteOffset" : 145432
        }
    ],
    "samplers" : [
        {
            "magFilter" : 9729,
            "minFilter" : 9987,
            "wrapS" : 33071,
            "wrapT" : 33071
        }
    ],
    "buffers" : [
        {
            "byteLength" : 160060,
            "uri" : "data:application/octet-stream;base64,"
        }
    ]
}
